<svg version="1.1" viewBox="0 0 640 400" xmlns="http://www.w3.org/2000/svg" xmlns:xlink="http://www.w3.org/1999/xlink"
    xmlns:svgjs="http://svgjs.dev/svgjs" matcher="0.7290151517591992">
    <g viewBox="0 0 640 400" matcher="0.7290151517591992">
        <g matcher="0.7290151517591992">
            <g matcher="0.7290151517591992">
                <g matcher="0.7290151517591992"><svg viewBox="0 0 640 400" data-background-color="#ffffff"
                        preserveAspectRatio="xMidYMid meet" height="400" width="640" xmlns="http://www.w3.org/2000/svg"
                        xmlns:xlink="http://www.w3.org/1999/xlink">
                        <g id="tight-bounds" transform="matrix(1,0,0,1,122.24000000000001,163.03126184854983)"><svg
                                viewBox="0 0 395.52 73.93747630290032" height="73.93747630290032" width="395.52">
                                <g><svg viewBox="0 0 500.26287018805306 93.51783502667394" height="73.93747630290032"
                                        width="395.52">
                                        <g transform="matrix(1,0,0,1,104.74287018805313,23.42495997387045)"><svg
                                                viewBox="0 0 395.5199999999999 46.667915078933035"
                                                height="46.667915078933035" width="395.5199999999999">
                                                <g id="textblocktransform"><svg
                                                        viewBox="0 0 395.5199999999999 46.667915078933035"
                                                        height="46.667915078933035" width="395.5199999999999"
                                                        id="textblock">
                                                        <g><svg viewBox="0 0 395.5199999999999 46.667915078933035"
                                                                height="46.667915078933035" width="395.5199999999999">
                                                                <g transform="matrix(1,0,0,1,0,0)"><svg
                                                                        width="395.5199999999999"
                                                                        viewBox="2 -34.25 367.3699951171875 43.35000228881836"
                                                                        height="46.667915078933035"
                                                                        data-palette-color="#398378">
                                                                        <path
                                                                            d="M23.25-6.95L23.25-9.8Q23.25-11.45 23.4-12.8L23.4-12.8 23.3-12.95Q21.9-12.75 20.25-12.68 18.6-12.6 17.2-12.65L17.2-12.65 17.2-19.15 30.25-19.2 30.25-2.2Q27.95-1.15 25.03-0.58 22.1 0 17.6 0L17.6 0Q11.6 0 8.2-1.63 4.8-3.25 3.4-6.88 2-10.5 2-16.55L2-16.55Q2-21.45 3.13-24.6 4.25-27.75 6.43-29.48 8.6-31.2 11.75-31.88 14.9-32.55 18.95-32.55L18.95-32.55Q21.35-32.55 23.78-32.35 26.2-32.15 28.6-31.6L28.6-31.6 28.6-25 28.45-24.9Q26.35-25.4 24.28-25.6 22.2-25.8 20.1-25.8L20.1-25.8Q17.05-25.8 14.78-25.18 12.5-24.55 11.25-22.6 10-20.65 10-16.55L10-16.55Q10-12.5 10.68-10.38 11.35-8.25 13.23-7.48 15.1-6.7 18.6-6.7L18.6-6.7Q19.05-6.7 20-6.73 20.95-6.75 21.9-6.8 22.85-6.85 23.25-6.95L23.25-6.95ZM43.75-34.1L43.75-0.45 35.75-0.45 35.75-34.1 43.75-34.1ZM48-12.45L48-12.45Q48-19.15 50.85-22.1 53.7-25.05 60.5-25.05L60.5-25.05Q65.05-25.05 67.8-23.75 70.55-22.45 71.77-19.68 73-16.9 73-12.45L73-12.45Q73-8.05 71.77-5.3 70.55-2.55 67.8-1.28 65.05 0 60.5 0L60.5 0Q53.7 0 50.85-2.93 48-5.85 48-12.45ZM60.5-6.85L60.5-6.85Q63.4-6.85 64.42-8.13 65.45-9.4 65.45-12.6L65.45-12.6Q65.45-15.65 64.42-16.98 63.4-18.3 60.5-18.3L60.5-18.3Q57.7-18.3 56.62-16.98 55.55-15.65 55.55-12.6L55.55-12.6Q55.55-9.4 56.62-8.13 57.7-6.85 60.5-6.85ZM92.74-13.6L92.64-13.6Q91.94-10.15 91.19-6.85 90.44-3.55 89.59-0.45L89.59-0.45 80.94-0.45 74.74-24.8 83.04-24.8Q83.74-21.05 84.44-17 85.14-12.95 85.69-9.05L85.69-9.05 85.79-9.05Q86.54-12.95 87.42-17 88.29-21.05 89.19-24.8L89.19-24.8 96.19-24.8Q97.09-21.05 97.97-17 98.84-12.95 99.59-9.05L99.59-9.05 99.69-9.05Q100.24-12.95 100.94-17 101.64-21.05 102.34-24.8L102.34-24.8 110.74-24.8 104.54-0.45 95.89-0.45Q95.09-3.55 94.27-6.85 93.44-10.15 92.74-13.6L92.74-13.6ZM121.79-33.85L121.79-33.85Q121.94-32.05 121.94-30.85L121.94-30.85Q121.94-30.15 121.92-29.43 121.89-28.7 121.79-27.8L121.79-27.8Q120.74-27.6 119.74-27.5 118.74-27.4 117.74-27.4L117.74-27.4Q116.79-27.4 115.82-27.5 114.84-27.6 113.84-27.8L113.84-27.8Q113.74-28.65 113.69-29.38 113.64-30.1 113.64-30.8L113.64-30.8Q113.64-31.45 113.69-32.2 113.74-32.95 113.84-33.85L113.84-33.85Q114.84-34.1 115.87-34.18 116.89-34.25 117.89-34.25L117.89-34.25Q118.84-34.25 119.82-34.18 120.79-34.1 121.79-33.85ZM121.79-24.8L121.79-0.45 113.79-0.45 113.79-24.8 121.79-24.8ZM135.34-13L135.34-0.45 127.34-0.45 127.34-24.8 134.94-24.8 135.34-20.35 135.49-20.35Q136.19-22.6 137.99-23.83 139.79-25.05 142.99-25.05L142.99-25.05Q147.34-25.05 149.41-22.6 151.49-20.15 151.49-14.1L151.49-14.1 151.49-0.45 143.49-0.45 143.44-12.55Q143.44-15.35 142.59-16.55 141.74-17.75 139.39-17.75L139.39-17.75Q137.19-17.75 136.29-16.68 135.39-15.6 135.34-13L135.34-13ZM158.79-1.95L158.79-2.1Q157.14-2.8 156.39-3.9 155.64-5 155.64-6.55L155.64-6.55Q155.64-7.95 156.41-9 157.19-10.05 158.49-10.65L158.49-10.65 158.49-10.8Q157.24-11.8 156.66-13.33 156.09-14.85 156.09-16.85L156.09-16.85Q156.09-20.85 158.69-22.95 161.29-25.05 167.69-25.05L167.69-25.05Q172.94-25.05 175.69-23.55L175.69-23.55 175.94-23.55Q176.74-24.85 177.99-25.7 179.24-26.55 181.04-26.55L181.04-26.55Q181.59-26.55 182.04-26.53 182.49-26.5 182.89-26.45L182.89-26.45 182.89-20.3Q181.94-20.5 180.64-20.5L180.64-20.5Q179.59-20.5 178.64-20.3L178.64-20.3Q179.19-18.85 179.19-16.85L179.19-16.85Q179.19-12.55 176.59-10.65 173.99-8.75 167.69-8.75L167.69-8.75Q166.24-8.75 164.99-8.85 163.74-8.95 162.69-9.15L162.69-9.15Q162.49-8.75 162.49-8.2L162.49-8.2Q162.49-7.4 163.01-6.88 163.54-6.35 164.84-6.35L164.84-6.35 172.04-6.35Q176.64-6.35 178.91-4.9 181.19-3.45 181.19 0.7L181.19 0.7Q181.19 4.8 177.99 6.95 174.79 9.1 167.19 9.1L167.19 9.1Q160.94 9.1 158.09 7.43 155.24 5.75 155.24 2.55L155.24 2.55Q155.24 0.8 156.19-0.38 157.14-1.55 158.79-1.95L158.79-1.95ZM167.69-14.1L167.69-14.1Q170.04-14.1 170.99-14.68 171.94-15.25 171.94-16.75L171.94-16.75Q171.94-18.25 170.99-18.95 170.04-19.65 167.69-19.65L167.69-19.65Q165.29-19.65 164.34-18.95 163.39-18.25 163.39-16.75L163.39-16.75Q163.39-15.25 164.34-14.68 165.29-14.1 167.69-14.1ZM168.14 3.2L168.14 3.2Q170.79 3.2 172.04 2.95 173.29 2.7 173.69 2.2 174.09 1.7 174.09 0.95L174.09 0.95Q174.09 0.1 173.59-0.43 173.09-0.95 172.09-0.95L172.09-0.95 164.44-0.95Q163.44-0.95 162.94-0.43 162.44 0.1 162.44 0.95L162.44 0.95Q162.44 1.7 162.86 2.2 163.29 2.7 164.51 2.95 165.74 3.2 168.14 3.2ZM219.13-32.1L229.38-0.6 229.38-0.45 220.88-0.45Q220.53-1.65 220.06-3.2 219.58-4.75 219.03-6.5L219.03-6.5 208.23-6.5Q207.23-3 206.38-0.45L206.38-0.45 197.88-0.45 197.88-0.55 208.13-32.1 219.13-32.1ZM213.73-26.4L213.53-26.4Q213.03-23.85 212.08-20.2 211.13-16.55 210.08-12.75L210.08-12.75 217.23-12.75Q216.13-16.55 215.18-20.2 214.23-23.85 213.73-26.4L213.73-26.4ZM234.68-1.95L234.68-2.1Q233.03-2.8 232.28-3.9 231.53-5 231.53-6.55L231.53-6.55Q231.53-7.95 232.3-9 233.08-10.05 234.38-10.65L234.38-10.65 234.38-10.8Q233.13-11.8 232.55-13.33 231.98-14.85 231.98-16.85L231.98-16.85Q231.98-20.85 234.58-22.95 237.18-25.05 243.58-25.05L243.58-25.05Q248.83-25.05 251.58-23.55L251.58-23.55 251.83-23.55Q252.63-24.85 253.88-25.7 255.13-26.55 256.93-26.55L256.93-26.55Q257.48-26.55 257.93-26.53 258.38-26.5 258.78-26.45L258.78-26.45 258.78-20.3Q257.83-20.5 256.53-20.5L256.53-20.5Q255.48-20.5 254.53-20.3L254.53-20.3Q255.08-18.85 255.08-16.85L255.08-16.85Q255.08-12.55 252.48-10.65 249.88-8.75 243.58-8.75L243.58-8.75Q242.13-8.75 240.88-8.85 239.63-8.95 238.58-9.15L238.58-9.15Q238.38-8.75 238.38-8.2L238.38-8.2Q238.38-7.4 238.9-6.88 239.43-6.35 240.73-6.35L240.73-6.35 247.93-6.35Q252.53-6.35 254.8-4.9 257.08-3.45 257.08 0.7L257.08 0.7Q257.08 4.8 253.88 6.95 250.68 9.1 243.08 9.1L243.08 9.1Q236.83 9.1 233.98 7.43 231.13 5.75 231.13 2.55L231.13 2.55Q231.13 0.8 232.08-0.38 233.03-1.55 234.68-1.95L234.68-1.95ZM243.58-14.1L243.58-14.1Q245.93-14.1 246.88-14.68 247.83-15.25 247.83-16.75L247.83-16.75Q247.83-18.25 246.88-18.95 245.93-19.65 243.58-19.65L243.58-19.65Q241.18-19.65 240.23-18.95 239.28-18.25 239.28-16.75L239.28-16.75Q239.28-15.25 240.23-14.68 241.18-14.1 243.58-14.1ZM244.03 3.2L244.03 3.2Q246.68 3.2 247.93 2.95 249.18 2.7 249.58 2.2 249.98 1.7 249.98 0.95L249.98 0.95Q249.98 0.1 249.48-0.43 248.98-0.95 247.98-0.95L247.98-0.95 240.33-0.95Q239.33-0.95 238.83-0.43 238.33 0.1 238.33 0.95L238.33 0.95Q238.33 1.7 238.75 2.2 239.18 2.7 240.4 2.95 241.63 3.2 244.03 3.2ZM282.73-6.8L282.73-1.25Q281.33-0.75 278.85-0.38 276.38 0 272.98 0L272.98 0Q268.68 0 265.65-1.13 262.63-2.25 261.08-4.98 259.53-7.7 259.53-12.55L259.53-12.55Q259.53-19.15 262.55-22.1 265.58-25.05 271.93-25.05L271.93-25.05Q276.48-25.05 279.1-23.75 281.73-22.45 282.85-20.08 283.98-17.7 283.98-14.45L283.98-14.45Q283.98-13.5 283.9-12.4 283.83-11.3 283.63-10.25L283.63-10.25 283.43-10.05 266.98-10.05Q267.33-7.85 269.05-7.15 270.78-6.45 274.68-6.45L274.68-6.45Q277.28-6.45 279-6.58 280.73-6.7 282.53-6.95L282.53-6.95 282.73-6.8ZM266.83-15.3L277.03-15.3Q277.03-16.5 276.65-17.38 276.28-18.25 275.18-18.73 274.08-19.2 271.93-19.2L271.93-19.2Q268.78-19.2 267.8-18.13 266.83-17.05 266.83-15.3L266.83-15.3ZM296.22-13L296.22-0.45 288.22-0.45 288.22-24.8 295.82-24.8 296.22-20.35 296.37-20.35Q297.07-22.6 298.87-23.83 300.67-25.05 303.87-25.05L303.87-25.05Q308.22-25.05 310.3-22.6 312.37-20.15 312.37-14.1L312.37-14.1 312.37-0.45 304.37-0.45 304.32-12.55Q304.32-15.35 303.47-16.55 302.62-17.75 300.27-17.75L300.27-17.75Q298.07-17.75 297.17-16.68 296.27-15.6 296.22-13L296.22-13ZM340.67-0.45L333.07-0.45 332.77-4 332.57-4Q331.72-2 330.14-1 328.57 0 325.57 0L325.57 0Q320.72 0 318.47-2.83 316.22-5.65 316.12-11.35L316.12-11.35Q316.07-16.45 317.17-19.45 318.27-22.45 320.62-23.75 322.97-25.05 326.62-25.05L326.62-25.05Q328.52-25.05 330.07-24.73 331.62-24.4 332.57-23.85L332.57-23.85 332.67-23.9 332.67-34.1 340.67-34.1 340.67-0.45ZM328.17-6.8L328.17-6.8Q330.17-6.8 331.42-8.05 332.67-9.3 332.67-12.2L332.67-12.2 332.67-17.45Q330.82-18.2 328.32-18.2L328.32-18.2Q325.97-18.2 324.94-17.07 323.92-15.95 323.92-12.55L323.92-12.55Q323.92-9.65 324.75-8.22 325.57-6.8 328.17-6.8ZM355.92-25.05L355.92-25.05Q360.72-25.05 363.67-24.05 366.62-23.05 367.99-20.38 369.37-17.7 369.37-12.65L369.37-12.65 369.37-0.45 362.12-0.45 361.87-2.75 361.72-2.75Q360.77-1.5 358.77-0.75 356.77 0 353.57 0L353.57 0Q344.92 0 344.92-8.1L344.92-8.1Q344.92-11.55 347.19-13.53 349.47-15.5 354.37-15.5L354.37-15.5 361.77-15.5Q361.42-17.6 359.97-18.32 358.52-19.05 355.02-19.05L355.02-19.05Q352.82-19.05 350.69-18.73 348.57-18.4 346.97-18L346.97-18 346.82-18.1 346.87-23.9Q347.87-24.2 349.42-24.48 350.97-24.75 352.69-24.9 354.42-25.05 355.92-25.05ZM355.62-5.9L355.62-5.9Q358.72-5.9 360.27-6.68 361.82-7.45 361.87-9.15L361.87-9.15 361.87-10.4 356.22-10.4Q354.02-10.4 353.14-9.78 352.27-9.15 352.27-8.1L352.27-8.1Q352.27-6.85 353.17-6.38 354.07-5.9 355.62-5.9Z"
                                                                            opacity="1" transform="matrix(1,0,0,1,0,0)"
                                                                            fill="#398378" class="wordmark-text-0"
                                                                            data-fill-palette-color="primary"
                                                                            id="text-0"></path>
                                                                    </svg></g>
                                                            </svg></g>
                                                    </svg></g>
                                            </svg></g>
                                        <g><svg viewBox="0 0 93.72569546787894 93.51783502667394"
                                                height="93.51783502667394" width="93.72569546787894">
                                                <g><svg xmlns="http://www.w3.org/2000/svg"
                                                        xmlns:xlink="http://www.w3.org/1999/xlink" version="1.1" x="0"
                                                        y="0"
                                                        viewBox="4.909999847412109 5.010000228881836 90.17999267578125 89.97999572753906"
                                                        enable-background="new 0 0 100 100" xml:space="preserve"
                                                        height="93.51783502667394" width="93.72569546787894"
                                                        class="icon-icon-0" data-fill-palette-color="accent"
                                                        id="icon-0">
                                                        <g fill="#398378" data-fill-palette-color="accent">
                                                            <path
                                                                d="M69.2 12.76V5.01H56.86V12.76H25.59V5.01H13.25V12.76H4.91V65.58C4.91 72.01 10.14 77.25 16.58 77.25H41.75C41.36 75.95 41.05 74.62 40.85 73.25H16.58C12.35 73.25 8.91 69.81 8.91 65.58V32.12H73.16V40.73C74.53 40.92 75.86 41.21 77.16 41.6V12.76zM60.86 9.01H65.2V19.97H60.86zM17.25 9.01H21.59V19.97H17.25zM73.16 28.12H8.91V16.76H13.25V23.97H25.59V16.76H56.86V23.97H69.2V16.76H73.16z"
                                                                fill="#398378" data-fill-palette-color="accent"></path>
                                                        </g>
                                                        <g fill="#398378" data-fill-palette-color="accent">
                                                            <g fill="#398378" data-fill-palette-color="accent">
                                                                <path
                                                                    d="M77.16 44.24C75.87 43.81 74.53 43.48 73.16 43.27 71.82 43.05 70.45 42.94 69.06 42.94 54.71 42.94 43.04 54.62 43.04 68.97 43.04 70.43 43.16 71.86 43.4 73.25 43.62 74.62 43.96 75.96 44.4 77.25 47.86 87.55 57.6 94.99 69.06 94.99 83.41 94.99 95.09 83.32 95.09 68.97 95.09 57.45 87.56 47.65 77.16 44.24M69.06 90.99C59.85 90.99 51.94 85.3 48.66 77.25 48.14 75.97 47.73 74.64 47.46 73.25 47.18 71.87 47.04 70.43 47.04 68.97 47.04 56.82 56.92 46.94 69.06 46.94 70.46 46.94 71.83 47.07 73.16 47.33 74.55 47.58 75.88 47.98 77.16 48.49 85.31 51.72 91.09 59.68 91.09 68.97 91.09 81.11 81.21 90.99 69.06 90.99"
                                                                    fill="#398378" data-fill-palette-color="accent">
                                                                </path>
                                                            </g>
                                                            <g fill="#398378" data-fill-palette-color="accent">
                                                                <polygon
                                                                    points="82.36,79.27 80.95,80.68 79.53,82.09 72.41,74.97 69.53,72.1 67.23,69.8 67.23,56.89 71.23,56.89 71.23,68.14     72.26,69.17 75.17,72.08 78.21,75.12   "
                                                                    fill="#398378" data-fill-palette-color="accent">
                                                                </polygon>
                                                            </g>
                                                        </g>
                                                    </svg></g>
                                            </svg></g>
                                    </svg></g>
                                <defs></defs>
                            </svg>
                            <rect width="395.52" height="73.93747630290032" fill="none" stroke="none"
                                visibility="hidden"></rect>
                        </g>
                    </svg></g>
            </g>
        </g>
    </g>
    <rect width="324.6821642612524" height="48.8967863258317" x="200.06505320450094" y="176.55160683708414" rx="2.5"
        ry="2.5" fill="transparent" class="logo-element-hover-target"></rect>
    <rect width="86.1017918297456" height="85.93749617783755" x="117.24001651174171" y="158.03126146648728" rx="2.5"
        ry="2.5" fill="transparent" class="logo-element-hover-target"></rect>
</svg>